<svg width="37" height="17" viewBox="0 0 37 17" fill="none" xmlns="http://www.w3.org/2000/svg">
<path d="M34.6888 0.0128117C34.3851 0.0128727 34.0843 0.0686417 33.8038 0.176935C33.5232 0.285227 33.2683 0.44392 33.0537 0.643942L21.2318 11.6471C20.874 11.9802 20.4493 12.2444 19.9818 12.4247C19.5143 12.605 19.0132 12.6978 18.5071 12.6978C18.0011 12.6978 17.5 12.605 17.0325 12.4247C16.565 12.2444 16.1402 11.9802 15.7824 11.6471L3.97443 0.656851C3.76118 0.451353 3.5061 0.287441 3.22407 0.174681C2.94204 0.0619183 2.6387 0.00256348 2.33176 8.2016e-05C2.02482 -0.00240135 1.72042 0.0520382 1.43632 0.160221C1.15222 0.268404 0.894122 0.428164 0.677073 0.63018C0.460024 0.832199 0.288375 1.07243 0.172142 1.33685C0.0559092 1.60127 -0.00257996 1.88459 8.72812e-05 2.17028C0.00275452 2.45596 0.0665248 2.73829 0.187677 3.00079C0.308829 3.26329 0.484938 3.50071 0.705726 3.69918L12.5137 14.6895C14.1033 16.1689 16.2592 17 18.5071 17C20.7551 17 22.9109 16.1689 24.5005 14.6895L36.3239 3.68484C36.6469 3.38386 36.8668 3.00052 36.9558 2.58327C37.0447 2.16602 36.9988 1.73359 36.8239 1.34061C36.6489 0.947636 36.3526 0.611759 35.9726 0.375425C35.5926 0.13909 35.1459 0.0129032 34.6888 0.0128117Z" fill="#5A5A5A"/>
</svg>
