<svg width="37" height="17" viewBox="0 0 37 17" fill="none" xmlns="http://www.w3.org/2000/svg">
<path d="M34.6888 16.9872C34.3851 16.9871 34.0843 16.9314 33.8038 16.8231C33.5232 16.7148 33.2683 16.5561 33.0537 16.3561L21.2318 5.35288C20.874 5.01979 20.4493 4.75557 19.9818 4.5753C19.5143 4.39503 19.0132 4.30224 18.5071 4.30224C18.0011 4.30224 17.5 4.39503 17.0325 4.5753C16.565 4.75557 16.1402 5.01979 15.7824 5.35288L3.97443 16.3431C3.76118 16.5486 3.5061 16.7126 3.22407 16.8253C2.94204 16.9381 2.6387 16.9974 2.33176 16.9999C2.02482 17.0024 1.72042 16.948 1.43632 16.8398C1.15222 16.7316 0.894122 16.5718 0.677073 16.3698C0.460024 16.1678 0.288375 15.9276 0.172142 15.6632C0.0559092 15.3987 -0.00257996 15.1154 8.72812e-05 14.8297C0.00275452 14.544 0.0665248 14.2617 0.187677 13.9992C0.308829 13.7367 0.484938 13.4993 0.705726 13.3008L12.5137 2.31055C14.1033 0.831125 16.2592 0 18.5071 0C20.7551 0 22.9109 0.831125 24.5005 2.31055L36.3239 13.3152C36.6469 13.6161 36.8668 13.9995 36.9558 14.4167C37.0447 14.834 36.9988 15.2664 36.8239 15.6594C36.6489 16.0524 36.3526 16.3882 35.9726 16.6246C35.5926 16.8609 35.1459 16.9871 34.6888 16.9872Z" fill="#5A5A5A"/>
</svg>
